<?xml version="1.0" standalone="no"?>
<!DOCTYPE svg PUBLIC "-//W3C//DTD SVG 20010904//EN"
 "http://www.w3.org/TR/2001/REC-SVG-20010904/DTD/svg10.dtd">
<svg version="1.0" xmlns="http://www.w3.org/2000/svg"
 width="256.000000pt" height="256.000000pt" viewBox="0 0 256.000000 256.000000"
 preserveAspectRatio="xMidYMid meet">
<metadata>
Created by potrace 1.11, written by Peter Selinger 2001-2013
</metadata>
<g transform="translate(0.000000,256.000000) scale(0.100000,-0.100000)"
fill="#000000" stroke="none">
<path d="M869 2547 c-65 -24 -115 -67 -143 -122 -15 -28 -18 -30 -92 -32 -114
-5 -193 -48 -240 -130 -10 -18 -23 -33 -29 -34 -5 0 -46 -2 -90 -4 -123 -4
-197 -46 -248 -140 l-22 -40 0 -930 0 -930 24 -45 c26 -51 67 -91 120 -117 34
-17 86 -18 786 -21 674 -2 754 -1 793 14 88 33 148 108 160 202 4 31 7 451 6
932 -1 956 2 904 -58 983 -51 66 -128 95 -262 96 -59 1 -62 2 -74 31 -15 37
-81 97 -127 117 -20 8 -70 15 -111 17 -73 2 -77 4 -94 32 -32 54 -43 65 -89
95 -56 36 -152 48 -210 26z"/>
<path d="M2241 2158 c-73 -21 -135 -82 -166 -162 -14 -36 -15 -136 -13 -826
l3 -785 87 -177 c88 -178 111 -208 158 -208 48 0 70 30 158 208 l87 175 3 794
c2 764 2 796 -17 837 -53 122 -175 180 -300 144z"/>
</g>
</svg>
